<svg width="24" height="24" viewBox="0 0 24 24" fill="none" xmlns="http://www.w3.org/2000/svg">
<path fill-rule="evenodd" clip-rule="evenodd" d="M23.8968 7.05581C23.8406 5.78067 23.6347 4.9038 23.3397 4.14435C23.0354 3.33793 22.5674 2.61605 21.954 2.01581C21.3547 1.40618 20.6293 0.93276 19.8335 0.632642C19.0706 0.337691 18.2002 0.131507 16.9266 0.0751468C15.6441 0.01409 15.2366 0 11.9836 0C8.73013 0 8.32309 0.01409 7.04478 0.0704501C5.77163 0.12681 4.89613 0.332994 4.13787 0.628415C3.33271 0.93276 2.61196 1.40196 2.01266 2.01628C1.40399 2.61605 0.93177 3.34309 0.632122 4.13965C0.337163 4.90427 0.131301 5.77597 0.0750293 7.05112C0.014068 8.33613 0 8.7438 0 12.0024C0 15.2609 0.014068 15.6686 0.07034 16.9484C0.126612 18.2236 0.332474 19.1004 0.627432 19.8599C0.93177 20.6663 1.40445 21.3882 2.01266 21.9884C2.61196 22.598 3.3374 23.0715 4.13318 23.3716C4.89613 23.667 5.76694 23.8732 7.04009 23.9291C8.31793 23.9854 8.72544 23.9995 11.9789 23.9995C15.2319 23.9995 15.6394 23.9854 16.9172 23.9291C18.1904 23.8732 19.0659 23.6665 19.8241 23.3716C21.4345 22.7479 22.7076 21.4727 23.3304 19.8599C23.6253 19.0957 23.8312 18.2236 23.8875 16.9484C23.9437 15.6686 23.9578 15.2604 23.9578 12.0024C23.9578 8.7438 23.9531 8.33613 23.8968 7.05581ZM19.8195 5.59324C19.8195 6.38838 19.1761 7.0323 18.3822 7.0323C17.5887 7.0323 16.9454 6.38791 16.9454 5.59324C16.9454 4.79809 17.5887 4.15417 18.3822 4.15417C19.1761 4.15417 19.8195 4.79809 19.8195 5.59324ZM5.2912 12C5.2912 8.31908 8.27741 5.33337 11.9579 5.33337C15.6383 5.33337 18.624 8.31908 18.6245 12C18.6245 15.6805 15.6383 18.6667 11.9579 18.6667C8.27741 18.6667 5.2912 15.6805 5.2912 12ZM7.63345 12C7.63345 14.388 9.56991 16.3245 11.9579 16.3245C14.3453 16.3245 16.2823 14.388 16.2823 12C16.2823 9.61209 14.3458 7.67562 11.9579 7.67562C9.57042 7.67562 7.63345 9.61209 7.63345 12Z" fill="#FAAF1E"/>
</svg>
